<?xml version="1.0" encoding="UTF-8"?>
<svg width="36px" height="36px" viewBox="0 0 36 36" version="1.1" xmlns="http://www.w3.org/2000/svg" xmlns:xlink="http://www.w3.org/1999/xlink">
    <title>icon-全部服务</title>
    <g id="0315新增h5卡片第二批" stroke="none" stroke-width="1" fill="none" fill-rule="evenodd">
        <g id="服务类" transform="translate(-1781.000000, -3264.000000)">
            <g id="推荐服务" transform="translate(130.000000, 2417.000000)">
                <g id="1.1.4配置了“全部服务”-单数" transform="translate(1445.000000, 445.000000)">
                    <g id="一行两个164-list1" transform="translate(194.000000, 392.000000)">
                        <g id="btn/全部服务">
                            <g id="icon-全部服务">
                                <g transform="translate(12.000000, 10.000000)">
                                    <rect id="矩形" fill="#E7EDF1" x="0" y="0" width="36" height="36" rx="6.26086957"></rect>
                                    <g id="全部服务" transform="translate(7.826087, 7.826087)" fill="#ADB9CB" fill-rule="nonzero">
                                        <path d="M0,1.46946675 C0,0.678113162 0.678122767,0 1.46947596,0 L7.46101363,0 C8.36516407,0 9.0432769,0.678113162 9.0432769,1.46946675 L9.0432769,7.46100734 C9.0432769,8.36515822 8.36516407,9.04327138 7.57381087,9.04327138 L1.46946603,9.04327138 C0.678112831,9.04327138 0,8.36515822 0,7.57380464 L0,1.46945681 L0,1.46946675 Z M0,12.7740155 C0,11.9822188 0.678122767,11.3045487 1.46947596,11.3045487 L7.46101363,11.3045487 C8.36516407,11.3045487 9.0432769,11.9826619 9.0432769,12.7740155 L9.0432769,18.7651189 C9.0432769,19.6697129 8.36516407,20.3478261 7.57381087,20.3478261 L1.46946603,20.3478261 C0.678112831,20.3478261 0,19.6697129 0,18.8783593 L0,12.7740115 L0,12.7740155 Z M11.3045532,1.46946675 C11.3045532,0.678113162 11.982666,0 12.7740192,0 L18.7651197,0 C19.6697133,0 20.3478261,0.678113162 20.3478261,1.46946675 L20.3478261,7.46100734 C20.3478261,8.36515822 19.6697133,9.04327138 18.8783601,9.04327138 L12.8868224,9.04327138 C11.982672,9.04327138 11.3045532,8.36515822 11.3045532,7.57380464 L11.3045532,1.46945681 L11.3045532,1.46946675 Z M11.3045532,12.7740155 C11.3045532,11.9822188 11.982666,11.3045487 12.7740192,11.3045487 L18.7651197,11.3045487 C19.556916,11.3045487 20.2345857,11.9826619 20.2345857,12.7740155 L20.2345857,18.7651189 C20.2345857,19.5569156 19.5564729,20.2345857 18.7651197,20.2345857 L12.7740192,20.2345857 C11.9822229,20.2345857 11.3045532,19.5564725 11.3045532,18.7651189 L11.3045532,12.7740155 Z" id="形状"></path>
                                    </g>
                                </g>
                            </g>
                        </g>
                    </g>
                </g>
            </g>
        </g>
    </g>
</svg>