<?xml version="1.0" encoding="UTF-8"?>
<svg width="42px" height="42px" viewBox="0 0 42 42" version="1.1" xmlns="http://www.w3.org/2000/svg" xmlns:xlink="http://www.w3.org/1999/xlink">
    <title>icon 42查看更多</title>
    <defs>
        <rect id="path-1" x="0" y="0" width="42" height="42"></rect>
    </defs>
    <g id="0323新增h5卡片第三批" stroke="none" stroke-width="1" fill="none" fill-rule="evenodd">
        <g id="3.1.1事项分类" transform="translate(-256.000000, -314.000000)">
            <g id="编组-5">
                <g id="查看更多" transform="translate(196.000000, 274.000000)">
                    <g id="编组">
                        <g transform="translate(34.000000, 40.000000)">
                            <g id="编组-2">
                                <g id="icon-42查看更多" transform="translate(26.000000, 0.000000)">
                                    <g id="形状">
                                        <mask id="mask-2" fill="white">
                                            <use xlink:href="#path-1"></use>
                                        </mask>
                                        <g id="蒙版"></g>
                                        <path d="M17.0911768,4.70148675 L5.70796793,4.70148675 C4.76396286,4.70148675 4,5.49305204 4,6.46335788 L4,18.1972494 C4,19.1692575 4.76396286,19.9591205 5.70796793,19.9591205 L17.0911768,19.9591205 C18.0319379,19.9591205 18.7991448,19.1692575 18.7991448,18.1972494 L18.7991448,6.46335788 C18.7991448,5.49134975 18.0319379,4.70148675 17.0911768,4.70148675 Z M34.5925766,22.7440685 L23.2061237,22.7440685 C22.2637407,22.7440685 21.4997778,23.5322292 21.4997778,24.5042374 L21.4997778,36.2398312 C21.4997778,37.2118393 22.2621187,38 23.2061237,38 L34.5909546,38 C35.5317157,38 36.2973006,37.2118393 36.2973006,36.2398312 L36.2973006,24.5042374 C36.2973006,23.5339315 35.5333377,22.7440685 34.5909546,22.7440685 L34.5925766,22.7440685 Z M37.1666935,9.19553486 L27.9666991,4.18739489 C27.2069989,3.77190811 26.2701907,4.06988737 25.8580967,4.85809752 L21.0018232,14.344965 C20.8097279,14.7232112 20.770595,15.1666283 20.8932276,15.5754681 C21.0158601,15.9843079 21.2899602,16.3242382 21.653868,16.5187905 L30.8538624,21.5235259 C31.6132263,21.938312 32.5492229,21.6413465 32.9624648,20.8545256 L37.8203603,11.3693604 C38.0132546,10.9910886 38.0526426,10.5471601 37.9296128,10.1380139 C37.806583,9.72886769 37.5315332,9.38908249 37.1666935,9.19553486 L37.1666935,9.19553486 Z M17.0911768,22.7440685 L5.70796793,22.7440685 C4.76396286,22.7440685 4,23.5322292 4,24.5042374 L4,36.2398312 C4,37.2118393 4.76396286,38 5.70796793,38 L17.0911768,38 C18.0319379,38 18.7991448,37.2118393 18.7991448,36.2398312 L18.7991448,24.5042374 C18.7991448,23.5339315 18.0335599,22.7440685 17.0911768,22.7440685 Z" fill="#C1CBD4" mask="url(#mask-2)"></path>
                                    </g>
                                </g>
                            </g>
                        </g>
                    </g>
                </g>
            </g>
        </g>
    </g>
</svg>