<?xml version="1.0" encoding="UTF-8"?>
<svg width="28px" height="14px" viewBox="0 0 28 14" version="1.1" xmlns="http://www.w3.org/2000/svg" xmlns:xlink="http://www.w3.org/1999/xlink">
    <title>tag/置顶</title>
    <defs>
        <path d="M7.905,10.425 L7.905,4.995 L9.945,4.995 L9.945,3.575 L4.315,3.575 L4.315,4.995 L6.355,4.995 L6.355,10.425 L7.905,10.425 Z M13.985,10.565 C16.035,10.565 17.615,9.035 17.615,6.995 C17.615,4.965 16.035,3.435 13.985,3.435 C11.985,3.435 10.355,4.965 10.355,7.005 C10.355,9.035 11.985,10.565 13.985,10.565 Z M13.985,9.125 C12.825,9.125 11.935,8.205 11.935,7.005 C11.935,5.805 12.825,4.875 13.985,4.875 C15.145,4.875 16.035,5.805 16.035,6.995 C16.035,8.205 15.145,9.125 13.985,9.125 Z M19.845,10.425 L19.845,8.515 L21.105,8.515 C22.715,8.515 23.685,7.395 23.685,5.995 C23.685,4.665 22.805,3.575 21.245,3.575 L18.295,3.575 L18.295,10.425 L19.845,10.425 Z M21.065,7.095 L19.845,7.095 L19.845,4.995 L21.015,4.995 C21.735,4.995 22.125,5.415 22.125,6.035 C22.125,6.655 21.725,7.095 21.065,7.095 Z" id="path-1"></path>
    </defs>
    <g id="链接导航/新闻通知公告/轮播图/消息中心/办理统计/个人数据/待办/办理进度/校历" stroke="none" stroke-width="1" fill="none" fill-rule="evenodd">
        <g id="新闻通知公告" transform="translate(-1090.000000, -1934.000000)">
            <g id="编组-7" transform="translate(152.000000, 1761.000000)">
                <g id="04">
                    <g id="新闻通知公告单列-仅标题时间备份" transform="translate(0.000000, 64.000000)">
                        <g id="编组-26" transform="translate(0.000000, 92.000000)">
                            <g id="tag/置顶" transform="translate(938.000000, 17.000000)">
                                <g id="编组-3">
                                    <rect id="矩形备份-33" stroke="#FF230C" stroke-width="0.5" fill-opacity="0.1" fill="#FF230C" x="0.25" y="0.25" width="27.5" height="13.5" rx="2"></rect>
                                    <g id="TOP" fill-rule="nonzero">
                                        <use fill="#FFFFFF" xlink:href="#path-1"></use>
                                        <use fill="#FF230C" xlink:href="#path-1"></use>
                                    </g>
                                </g>
                            </g>
                        </g>
                    </g>
                </g>
            </g>
        </g>
    </g>
</svg>