<?xml version="1.0" standalone="no"?><!DOCTYPE svg PUBLIC "-//W3C//DTD SVG 1.1//EN" "http://www.w3.org/Graphics/SVG/1.1/DTD/svg11.dtd"><svg t="1621906693405" class="icon" viewBox="0 0 1024 1024" version="1.1" xmlns="http://www.w3.org/2000/svg" p-id="5873" xmlns:xlink="http://www.w3.org/1999/xlink" width="200" height="200"><defs><style type="text/css"></style></defs><path d="M493.568 69.376c11.776-5.12 25.088-5.12 36.864 0l397.0048 173.1584a46.08 46.08 0 0 1 27.648 42.24v454.4512a46.08 46.08 0 0 1-27.648 42.24L530.432 954.6496c-11.776 5.12-25.088 5.12-36.864 0L96.5632 781.4656a46.08 46.08 0 0 1-27.648-42.24L68.864 287.6928l-0.512-0.2048 0.512-1.1008v-1.6128a46.08 46.08 0 0 1 24.1664-40.5248l3.5072-1.7152zM109.824 306.0736l0.0512 433.152a5.12 5.12 0 0 0 3.072 4.6848L491.52 909.056V477.824L109.824 306.0992z m804.3008-10.8544L532.48 477.5168V909.056l378.5728-165.12a5.12 5.12 0 0 0 2.8672-3.2l0.2048-1.4848V295.2448zM859.8784 701.696a20.48 20.48 0 0 1-7.7568 25.8048l-2.432 1.3056-147.4048 66.816a20.48 20.48 0 0 1-19.3792-36.0192l2.4576-1.3056 147.4048-66.816a20.48 20.48 0 0 1 27.136 10.24zM514.048 106.9056a5.12 5.12 0 0 0-4.096 0L132.608 271.4368l376.96 169.6512a5.12 5.12 0 0 0 2.8928 0.384l1.4336-0.4352 365.7472-174.6944z" fill="#102645" p-id="5874"></path></svg>