<svg width="22" height="22" viewBox="0 0 22 22" fill="none" xmlns="http://www.w3.org/2000/svg">
<g filter="url(#filter0_i_1625_12653)">
<path fill-rule="evenodd" clip-rule="evenodd" d="M6.00195 4.48223C6.00195 2.2883 7.78049 0.509766 9.97442 0.509766H12.5097C14.7036 0.509766 16.4822 2.2883 16.4822 4.48223C16.4822 4.94345 16.2422 5.37144 15.8487 5.612L14.0238 6.72757C12.3162 7.77148 10.1679 7.77148 8.46027 6.72757L6.63545 5.612C6.24194 5.37144 6.00195 4.94345 6.00195 4.48223Z" fill="url(#paint0_linear_1625_12653)"/>
</g>
<mask id="mask0_1625_12653" style="mask-type:luminance" maskUnits="userSpaceOnUse" x="6" y="0" width="11" height="8">
<path fill-rule="evenodd" clip-rule="evenodd" d="M6.00195 4.48223C6.00195 2.2883 7.78049 0.509766 9.97442 0.509766H12.5097C14.7036 0.509766 16.4822 2.2883 16.4822 4.48223C16.4822 4.94345 16.2422 5.37144 15.8487 5.612L14.0238 6.72757C12.3162 7.77148 10.1679 7.77148 8.46027 6.72757L6.63545 5.612C6.24194 5.37144 6.00195 4.94345 6.00195 4.48223Z" fill="white"/>
</mask>
<g mask="url(#mask0_1625_12653)">
<g filter="url(#filter1_i_1625_12653)">
<rect x="14.3867" y="-0.313477" width="2.09604" height="8.73351" rx="1.04802" fill="url(#paint1_linear_1625_12653)"/>
</g>
<g filter="url(#filter2_i_1625_12653)">
<rect x="6.00195" y="-0.313416" width="2.09604" height="8.73351" rx="1.04802" fill="url(#paint2_linear_1625_12653)"/>
</g>
</g>
<g filter="url(#filter3_i_1625_12653)">
<circle cx="11.1918" cy="12.6127" r="8.84996" fill="url(#paint3_linear_1625_12653)"/>
</g>
<circle cx="11.1918" cy="12.6127" r="7.07218" stroke="url(#paint4_linear_1625_12653)" stroke-width="3.55556"/>
<ellipse cx="11.2417" cy="12.6118" rx="7.4526" ry="7.4526" fill="url(#paint5_linear_1625_12653)"/>
<mask id="mask1_1625_12653" style="mask-type:luminance" maskUnits="userSpaceOnUse" x="2" y="3" width="19" height="19">
<circle cx="11.2425" cy="12.6117" r="8.84996" fill="white"/>
</mask>
<g mask="url(#mask1_1625_12653)">
<path fill-rule="evenodd" clip-rule="evenodd" d="M2.3198 22.1875C2.14503 22.0696 2.11557 21.8241 2.2575 21.6682L17.3143 5.1318C17.4298 5.00493 17.6209 4.982 17.7632 5.07795C17.938 5.19584 17.9674 5.44136 17.8255 5.59724L2.76868 22.1336C2.65316 22.2605 2.46205 22.2834 2.3198 22.1875Z" fill="url(#paint6_linear_1625_12653)"/>
<path fill-rule="evenodd" clip-rule="evenodd" d="M4.2574 23.2913C3.67483 22.8983 3.57665 22.0799 4.04975 21.5603L18.009 6.22935C18.394 5.80643 19.0311 5.73001 19.5052 6.04985C20.0878 6.4428 20.186 7.26122 19.7129 7.78082L5.75368 23.1118C5.3686 23.5347 4.73158 23.6111 4.2574 23.2913Z" fill="url(#paint7_linear_1625_12653)"/>
</g>
<g filter="url(#filter4_di_1625_12653)">
<path d="M12.9083 16.6304C12.9753 16.6304 13.0062 16.6017 13.0114 16.5347L13.0846 15.5873C13.0897 15.5203 13.0633 15.4916 12.9963 15.4916H10.7186L10.7201 15.4724L12.5891 13.4532C13.0684 12.946 13.3292 12.4196 13.3713 11.8741C13.4127 11.3382 13.2649 10.898 12.9286 10.5439C12.5922 10.1898 12.1175 10.0176 11.5146 10.0176C10.9117 10.0176 10.4206 10.1803 10.0318 10.5056C9.64304 10.831 9.41103 11.233 9.33654 11.7019C9.32179 11.7689 9.33798 11.8072 9.40423 11.8167L10.4436 11.989C10.5099 11.9986 10.5496 11.9794 10.5548 11.9124C10.6514 11.4052 10.9297 11.1468 11.3795 11.1468C11.8102 11.1468 12.0648 11.4435 12.03 11.8933C12.0064 12.1995 11.8591 12.4962 11.5778 12.7929L9.08068 15.5107C9.04901 15.549 9.02618 15.5969 9.02248 15.6447L8.95375 16.5347C8.94858 16.6017 8.97507 16.6304 9.04206 16.6304H12.9083Z" fill="url(#paint8_linear_1625_12653)"/>
</g>
<defs>
<filter id="filter0_i_1625_12653" x="6.00195" y="0.509766" width="10.48" height="11.0007" filterUnits="userSpaceOnUse" color-interpolation-filters="sRGB">
<feFlood flood-opacity="0" result="BackgroundImageFix"/>
<feBlend mode="normal" in="SourceGraphic" in2="BackgroundImageFix" result="shape"/>
<feColorMatrix in="SourceAlpha" type="matrix" values="0 0 0 0 0 0 0 0 0 0 0 0 0 0 0 0 0 0 127 0" result="hardAlpha"/>
<feOffset dy="10"/>
<feGaussianBlur stdDeviation="2"/>
<feComposite in2="hardAlpha" operator="arithmetic" k2="-1" k3="1"/>
<feColorMatrix type="matrix" values="0 0 0 0 1 0 0 0 0 1 0 0 0 0 1 0 0 0 0.262254 0"/>
<feBlend mode="normal" in2="shape" result="effect1_innerShadow_1625_12653"/>
</filter>
<filter id="filter1_i_1625_12653" x="14.3867" y="-0.313477" width="2.09619" height="8.73352" filterUnits="userSpaceOnUse" color-interpolation-filters="sRGB">
<feFlood flood-opacity="0" result="BackgroundImageFix"/>
<feBlend mode="normal" in="SourceGraphic" in2="BackgroundImageFix" result="shape"/>
<feColorMatrix in="SourceAlpha" type="matrix" values="0 0 0 0 0 0 0 0 0 0 0 0 0 0 0 0 0 0 127 0" result="hardAlpha"/>
<feOffset dy="16"/>
<feGaussianBlur stdDeviation="2"/>
<feComposite in2="hardAlpha" operator="arithmetic" k2="-1" k3="1"/>
<feColorMatrix type="matrix" values="0 0 0 0 1 0 0 0 0 1 0 0 0 0 1 0 0 0 0.201688 0"/>
<feBlend mode="normal" in2="shape" result="effect1_innerShadow_1625_12653"/>
</filter>
<filter id="filter2_i_1625_12653" x="6.00195" y="-0.313416" width="2.09619" height="8.73352" filterUnits="userSpaceOnUse" color-interpolation-filters="sRGB">
<feFlood flood-opacity="0" result="BackgroundImageFix"/>
<feBlend mode="normal" in="SourceGraphic" in2="BackgroundImageFix" result="shape"/>
<feColorMatrix in="SourceAlpha" type="matrix" values="0 0 0 0 0 0 0 0 0 0 0 0 0 0 0 0 0 0 127 0" result="hardAlpha"/>
<feOffset dy="16"/>
<feGaussianBlur stdDeviation="2"/>
<feComposite in2="hardAlpha" operator="arithmetic" k2="-1" k3="1"/>
<feColorMatrix type="matrix" values="0 0 0 0 1 0 0 0 0 1 0 0 0 0 1 0 0 0 0.201688 0"/>
<feBlend mode="normal" in2="shape" result="effect1_innerShadow_1625_12653"/>
</filter>
<filter id="filter3_i_1625_12653" x="2.3418" y="3.7627" width="17.6997" height="21.7" filterUnits="userSpaceOnUse" color-interpolation-filters="sRGB">
<feFlood flood-opacity="0" result="BackgroundImageFix"/>
<feBlend mode="normal" in="SourceGraphic" in2="BackgroundImageFix" result="shape"/>
<feColorMatrix in="SourceAlpha" type="matrix" values="0 0 0 0 0 0 0 0 0 0 0 0 0 0 0 0 0 0 127 0" result="hardAlpha"/>
<feOffset dy="4"/>
<feGaussianBlur stdDeviation="4.5"/>
<feComposite in2="hardAlpha" operator="arithmetic" k2="-1" k3="1"/>
<feColorMatrix type="matrix" values="0 0 0 0 1 0 0 0 0 1 0 0 0 0 1 0 0 0 0.5 0"/>
<feBlend mode="normal" in2="shape" result="effect1_innerShadow_1625_12653"/>
</filter>
<filter id="filter4_di_1625_12653" x="8.95312" y="10.0176" width="4.4248" height="7.61285" filterUnits="userSpaceOnUse" color-interpolation-filters="sRGB">
<feFlood flood-opacity="0" result="BackgroundImageFix"/>
<feColorMatrix in="SourceAlpha" type="matrix" values="0 0 0 0 0 0 0 0 0 0 0 0 0 0 0 0 0 0 127 0" result="hardAlpha"/>
<feOffset dy="1"/>
<feColorMatrix type="matrix" values="0 0 0 0 1 0 0 0 0 1 0 0 0 0 1 0 0 0 1 0"/>
<feBlend mode="normal" in2="BackgroundImageFix" result="effect1_dropShadow_1625_12653"/>
<feBlend mode="normal" in="SourceGraphic" in2="effect1_dropShadow_1625_12653" result="shape"/>
<feColorMatrix in="SourceAlpha" type="matrix" values="0 0 0 0 0 0 0 0 0 0 0 0 0 0 0 0 0 0 127 0" result="hardAlpha"/>
<feOffset dy="1"/>
<feGaussianBlur stdDeviation="1"/>
<feComposite in2="hardAlpha" operator="arithmetic" k2="-1" k3="1"/>
<feColorMatrix type="matrix" values="0 0 0 0 0 0 0 0 0 0 0 0 0 0 0 0 0 0 0.1 0"/>
<feBlend mode="normal" in2="shape" result="effect2_innerShadow_1625_12653"/>
</filter>
<linearGradient id="paint0_linear_1625_12653" x1="13.411" y1="0.4337" x2="8.26904" y2="2.33499" gradientUnits="userSpaceOnUse">
<stop stop-color="#F66F2F"/>
<stop offset="1" stop-color="#FE9960"/>
</linearGradient>
<linearGradient id="paint1_linear_1625_12653" x1="14.3867" y1="8.6884" x2="16.9902" y2="8.6884" gradientUnits="userSpaceOnUse">
<stop stop-color="#FE3023"/>
<stop offset="1" stop-color="#F9833C"/>
</linearGradient>
<linearGradient id="paint2_linear_1625_12653" x1="6.00195" y1="7.63127" x2="8.098" y2="7.63127" gradientUnits="userSpaceOnUse">
<stop stop-color="#FB8239"/>
<stop offset="1" stop-color="#FF5621"/>
</linearGradient>
<linearGradient id="paint3_linear_1625_12653" x1="2.71388" y1="3.7627" x2="2.71388" y2="20.7184" gradientUnits="userSpaceOnUse">
<stop stop-color="#FFD67F" stop-opacity="0.73268"/>
<stop offset="1" stop-color="#FFDC93"/>
</linearGradient>
<linearGradient id="paint4_linear_1625_12653" x1="7.02907" y1="5.24592" x2="7.02907" y2="13.5713" gradientUnits="userSpaceOnUse">
<stop stop-color="#FF5E2D"/>
<stop offset="1" stop-color="#FED09F" stop-opacity="0.01"/>
</linearGradient>
<linearGradient id="paint5_linear_1625_12653" x1="3.78906" y1="5.15918" x2="3.78906" y2="20.0644" gradientUnits="userSpaceOnUse">
<stop stop-color="white" stop-opacity="0.753229"/>
<stop offset="1" stop-color="white" stop-opacity="0.180131"/>
</linearGradient>
<linearGradient id="paint6_linear_1625_12653" x1="12.9994" y1="10.3611" x2="16.9383" y2="4.52154" gradientUnits="userSpaceOnUse">
<stop stop-color="white" stop-opacity="0.38"/>
<stop offset="1" stop-color="white" stop-opacity="0.01"/>
</linearGradient>
<linearGradient id="paint7_linear_1625_12653" x1="12.1907" y1="15.7575" x2="15.6991" y2="16.5088" gradientUnits="userSpaceOnUse">
<stop stop-color="white" stop-opacity="0.32"/>
<stop offset="1" stop-color="white" stop-opacity="0.01"/>
</linearGradient>
<linearGradient id="paint8_linear_1625_12653" x1="9.52588" y1="11.2976" x2="9.52588" y2="16.1985" gradientUnits="userSpaceOnUse">
<stop stop-color="#FF6F4C"/>
<stop offset="1" stop-color="#FF9E62"/>
</linearGradient>
</defs>
</svg>
