<svg width="22" height="22" viewBox="0 0 22 22" fill="none" xmlns="http://www.w3.org/2000/svg">
<g clip-path="url(#clip0_1625_12695)">
<g filter="url(#filter0_i_1625_12695)">
<path fill-rule="evenodd" clip-rule="evenodd" d="M5.51953 4.65761C5.51953 2.44934 7.30969 0.65918 9.51796 0.65918H12.0698C14.2781 0.65918 16.0682 2.44934 16.0682 4.65761C16.0682 5.12184 15.8267 5.55263 15.4306 5.79476L13.5757 6.92874C11.8681 7.97265 9.71972 7.97265 8.0121 6.92874L6.15717 5.79476C5.76109 5.55263 5.51953 5.12184 5.51953 4.65761Z" fill="url(#paint0_linear_1625_12695)"/>
</g>
<mask id="mask0_1625_12695" style="mask-type:luminance" maskUnits="userSpaceOnUse" x="5" y="0" width="12" height="8">
<path fill-rule="evenodd" clip-rule="evenodd" d="M5.51953 4.65761C5.51953 2.44934 7.30969 0.65918 9.51796 0.65918H12.0698C14.2781 0.65918 16.0682 2.44934 16.0682 4.65761C16.0682 5.12184 15.8267 5.55263 15.4306 5.79476L13.5757 6.92874C11.8681 7.97265 9.71972 7.97265 8.0121 6.92874L6.15717 5.79476C5.76109 5.55263 5.51953 5.12184 5.51953 4.65761Z" fill="white"/>
</mask>
<g mask="url(#mask0_1625_12695)">
<g filter="url(#filter1_i_1625_12695)">
<rect x="13.959" y="-0.168945" width="2.10974" height="8.7906" rx="1.05487" fill="url(#paint1_linear_1625_12695)"/>
</g>
<g filter="url(#filter2_i_1625_12695)">
<rect x="5.51953" y="-0.168945" width="2.10974" height="8.7906" rx="1.05487" fill="url(#paint2_linear_1625_12695)"/>
</g>
</g>
<g filter="url(#filter3_i_1625_12695)">
<circle cx="10.7418" cy="12.8404" r="8.90781" fill="url(#paint3_linear_1625_12695)"/>
</g>
<circle cx="10.7418" cy="12.8404" r="7.13003" stroke="url(#paint4_linear_1625_12695)" stroke-width="3.55556"/>
<circle cx="10.7923" cy="12.8412" r="7.50131" fill="url(#paint5_linear_1625_12695)"/>
<mask id="mask1_1625_12695" style="mask-type:luminance" maskUnits="userSpaceOnUse" x="1" y="3" width="19" height="19">
<circle cx="10.7926" cy="12.8404" r="8.90781" fill="white"/>
</mask>
<g mask="url(#mask1_1625_12695)">
<path fill-rule="evenodd" clip-rule="evenodd" d="M1.81025 22.479C1.63433 22.3603 1.60469 22.1132 1.74754 21.9563L16.9028 5.31182C17.019 5.18412 17.2114 5.16104 17.3546 5.25762C17.5305 5.37628 17.5601 5.62341 17.4173 5.7803L2.26206 22.4248C2.14579 22.5525 1.95343 22.5756 1.81025 22.479Z" fill="url(#paint6_linear_1625_12695)"/>
<path fill-rule="evenodd" clip-rule="evenodd" d="M3.76267 23.5901C3.17629 23.1946 3.07747 22.3708 3.55366 21.8478L17.6041 6.41664C17.9917 5.99096 18.6329 5.91405 19.1102 6.23597C19.6966 6.63149 19.7954 7.45526 19.3192 7.97825L5.26873 23.4094C4.88113 23.8351 4.23995 23.912 3.76267 23.5901Z" fill="url(#paint7_linear_1625_12695)"/>
</g>
<g filter="url(#filter4_di_1625_12695)">
<path d="M10.4787 16.8316C11.1226 16.8316 11.6668 16.6434 12.1114 16.267C12.5669 15.8807 12.8255 15.3854 12.8872 14.7812C12.9713 13.959 12.6248 13.3746 12.1727 13.1467L12.1747 13.1269C12.7133 12.8001 13.0085 12.3345 13.0692 11.7402C13.1826 10.6307 12.477 9.87793 11.1793 9.87793C10.0204 9.87793 9.16418 10.502 8.91156 11.4232C8.89559 11.4826 8.91135 11.5222 8.97967 11.5321L10.0381 11.7402C10.0965 11.7501 10.1382 11.7303 10.1641 11.6708C10.3155 11.2548 10.5943 11.0468 10.9906 11.0468C11.466 11.0468 11.7209 11.3638 11.6723 11.8392C11.6197 12.3543 11.2594 12.6812 10.7542 12.6812H10.4868C10.4174 12.6812 10.3847 12.7109 10.3776 12.7802L10.2794 13.7411C10.2723 13.8104 10.299 13.8401 10.3683 13.8401H10.6556C11.24 13.8401 11.5602 14.1967 11.4995 14.7911C11.4468 15.3061 11.0835 15.6627 10.5783 15.6627C10.1326 15.6627 9.85667 15.4547 9.76152 15.0288C9.74778 14.9694 9.71119 14.9396 9.65075 14.9495L8.53989 15.1576C8.46853 15.1774 8.44467 15.217 8.44749 15.2863C8.53751 16.2472 9.31976 16.8316 10.4787 16.8316Z" fill="url(#paint8_linear_1625_12695)"/>
</g>
</g>
<defs>
<filter id="filter0_i_1625_12695" x="5.51953" y="0.65918" width="10.5488" height="11.0525" filterUnits="userSpaceOnUse" color-interpolation-filters="sRGB">
<feFlood flood-opacity="0" result="BackgroundImageFix"/>
<feBlend mode="normal" in="SourceGraphic" in2="BackgroundImageFix" result="shape"/>
<feColorMatrix in="SourceAlpha" type="matrix" values="0 0 0 0 0 0 0 0 0 0 0 0 0 0 0 0 0 0 127 0" result="hardAlpha"/>
<feOffset dy="10"/>
<feGaussianBlur stdDeviation="2"/>
<feComposite in2="hardAlpha" operator="arithmetic" k2="-1" k3="1"/>
<feColorMatrix type="matrix" values="0 0 0 0 1 0 0 0 0 1 0 0 0 0 1 0 0 0 0.262254 0"/>
<feBlend mode="normal" in2="shape" result="effect1_innerShadow_1625_12695"/>
</filter>
<filter id="filter1_i_1625_12695" x="13.959" y="-0.168945" width="2.10986" height="8.79059" filterUnits="userSpaceOnUse" color-interpolation-filters="sRGB">
<feFlood flood-opacity="0" result="BackgroundImageFix"/>
<feBlend mode="normal" in="SourceGraphic" in2="BackgroundImageFix" result="shape"/>
<feColorMatrix in="SourceAlpha" type="matrix" values="0 0 0 0 0 0 0 0 0 0 0 0 0 0 0 0 0 0 127 0" result="hardAlpha"/>
<feOffset dy="16"/>
<feGaussianBlur stdDeviation="2"/>
<feComposite in2="hardAlpha" operator="arithmetic" k2="-1" k3="1"/>
<feColorMatrix type="matrix" values="0 0 0 0 1 0 0 0 0 1 0 0 0 0 1 0 0 0 0.201688 0"/>
<feBlend mode="normal" in2="shape" result="effect1_innerShadow_1625_12695"/>
</filter>
<filter id="filter2_i_1625_12695" x="5.51953" y="-0.168945" width="2.10986" height="8.79059" filterUnits="userSpaceOnUse" color-interpolation-filters="sRGB">
<feFlood flood-opacity="0" result="BackgroundImageFix"/>
<feBlend mode="normal" in="SourceGraphic" in2="BackgroundImageFix" result="shape"/>
<feColorMatrix in="SourceAlpha" type="matrix" values="0 0 0 0 0 0 0 0 0 0 0 0 0 0 0 0 0 0 127 0" result="hardAlpha"/>
<feOffset dy="16"/>
<feGaussianBlur stdDeviation="2"/>
<feComposite in2="hardAlpha" operator="arithmetic" k2="-1" k3="1"/>
<feColorMatrix type="matrix" values="0 0 0 0 1 0 0 0 0 1 0 0 0 0 1 0 0 0 0.201688 0"/>
<feBlend mode="normal" in2="shape" result="effect1_innerShadow_1625_12695"/>
</filter>
<filter id="filter3_i_1625_12695" x="1.83398" y="3.93262" width="17.8154" height="21.8156" filterUnits="userSpaceOnUse" color-interpolation-filters="sRGB">
<feFlood flood-opacity="0" result="BackgroundImageFix"/>
<feBlend mode="normal" in="SourceGraphic" in2="BackgroundImageFix" result="shape"/>
<feColorMatrix in="SourceAlpha" type="matrix" values="0 0 0 0 0 0 0 0 0 0 0 0 0 0 0 0 0 0 127 0" result="hardAlpha"/>
<feOffset dy="4"/>
<feGaussianBlur stdDeviation="4.5"/>
<feComposite in2="hardAlpha" operator="arithmetic" k2="-1" k3="1"/>
<feColorMatrix type="matrix" values="0 0 0 0 1 0 0 0 0 1 0 0 0 0 1 0 0 0 0.5 0"/>
<feBlend mode="normal" in2="shape" result="effect1_innerShadow_1625_12695"/>
</filter>
<filter id="filter4_di_1625_12695" x="8.44727" y="9.87793" width="4.63379" height="7.95367" filterUnits="userSpaceOnUse" color-interpolation-filters="sRGB">
<feFlood flood-opacity="0" result="BackgroundImageFix"/>
<feColorMatrix in="SourceAlpha" type="matrix" values="0 0 0 0 0 0 0 0 0 0 0 0 0 0 0 0 0 0 127 0" result="hardAlpha"/>
<feOffset dy="1"/>
<feColorMatrix type="matrix" values="0 0 0 0 1 0 0 0 0 1 0 0 0 0 1 0 0 0 1 0"/>
<feBlend mode="normal" in2="BackgroundImageFix" result="effect1_dropShadow_1625_12695"/>
<feBlend mode="normal" in="SourceGraphic" in2="effect1_dropShadow_1625_12695" result="shape"/>
<feColorMatrix in="SourceAlpha" type="matrix" values="0 0 0 0 0 0 0 0 0 0 0 0 0 0 0 0 0 0 127 0" result="hardAlpha"/>
<feOffset dy="1"/>
<feGaussianBlur stdDeviation="1"/>
<feComposite in2="hardAlpha" operator="arithmetic" k2="-1" k3="1"/>
<feColorMatrix type="matrix" values="0 0 0 0 0 0 0 0 0 0 0 0 0 0 0 0 0 0 0.1 0"/>
<feBlend mode="normal" in2="shape" result="effect2_innerShadow_1625_12695"/>
</filter>
<linearGradient id="paint0_linear_1625_12695" x1="12.977" y1="0.582617" x2="7.80144" y2="2.49634" gradientUnits="userSpaceOnUse">
<stop stop-color="#7912FF"/>
<stop offset="1" stop-color="#C471FF"/>
</linearGradient>
<linearGradient id="paint1_linear_1625_12695" x1="13.959" y1="7.82767" x2="16.0687" y2="7.82767" gradientUnits="userSpaceOnUse">
<stop stop-color="#6204FF"/>
<stop offset="1" stop-color="#8603FF"/>
</linearGradient>
<linearGradient id="paint2_linear_1625_12695" x1="5.51953" y1="7.82767" x2="7.62928" y2="7.82767" gradientUnits="userSpaceOnUse">
<stop stop-color="#DD58FF"/>
<stop offset="1" stop-color="#D23EFF"/>
</linearGradient>
<linearGradient id="paint3_linear_1625_12695" x1="2.2085" y1="3.93262" x2="2.2085" y2="20.9992" gradientUnits="userSpaceOnUse">
<stop stop-color="#DDBCFF" stop-opacity="0.55916"/>
<stop offset="1" stop-color="#E3C8FF"/>
</linearGradient>
<linearGradient id="paint4_linear_1625_12695" x1="6.5519" y1="5.42553" x2="6.5519" y2="13.8053" gradientUnits="userSpaceOnUse">
<stop stop-color="#8939FF"/>
<stop offset="1" stop-color="#E7D7FF"/>
</linearGradient>
<linearGradient id="paint5_linear_1625_12695" x1="3.29102" y1="5.33984" x2="3.29102" y2="20.3425" gradientUnits="userSpaceOnUse">
<stop stop-color="white" stop-opacity="0.753229"/>
<stop offset="1" stop-color="white" stop-opacity="0.180131"/>
</linearGradient>
<linearGradient id="paint6_linear_1625_12695" x1="12.5597" y1="10.5753" x2="16.5243" y2="4.69757" gradientUnits="userSpaceOnUse">
<stop stop-color="white" stop-opacity="0.38"/>
<stop offset="1" stop-color="white" stop-opacity="0.01"/>
</linearGradient>
<linearGradient id="paint7_linear_1625_12695" x1="11.7478" y1="16.007" x2="15.2792" y2="16.7633" gradientUnits="userSpaceOnUse">
<stop stop-color="white" stop-opacity="0.32"/>
<stop offset="1" stop-color="white" stop-opacity="0.01"/>
</linearGradient>
<linearGradient id="paint8_linear_1625_12695" x1="9.59257" y1="10.8209" x2="8.40433" y2="15.8161" gradientUnits="userSpaceOnUse">
<stop stop-color="#952AFC"/>
<stop offset="1" stop-color="#C384FE"/>
</linearGradient>
<clipPath id="clip0_1625_12695">
<rect width="22" height="22" fill="white"/>
</clipPath>
</defs>
</svg>
