<svg width="14" height="14" viewBox="0 0 14 14" fill="none" xmlns="http://www.w3.org/2000/svg">
<mask id="mask0_44_189" style="mask-type:alpha" maskUnits="userSpaceOnUse" x="0" y="0" width="14" height="14">
<rect width="14" height="14" fill="#C4C4C4"/>
</mask>
<g mask="url(#mask0_44_189)">
</g>
<path d="M4.23077 9.20769C3.91708 9.20769 3.66923 9.45554 3.66923 9.76923C3.66923 10.0829 3.91708 10.3308 4.23077 10.3308C4.54446 10.3308 4.79231 10.0829 4.79231 9.76923C4.79231 9.45554 4.54446 9.20769 4.23077 9.20769ZM4.23077 3.66923C3.91708 3.66923 3.66923 3.91708 3.66923 4.23077C3.66923 4.54446 3.91708 4.79231 4.23077 4.79231C4.54446 4.79231 4.79231 4.54446 4.79231 4.23077C4.79231 3.91708 4.54446 3.66923 4.23077 3.66923ZM4.23077 6.43846C3.91708 6.43846 3.66923 6.68631 3.66923 7C3.66923 7.31369 3.91708 7.56154 4.23077 7.56154C4.54446 7.56154 4.79231 7.31369 4.79231 7C4.79231 6.68631 4.54446 6.43846 4.23077 6.43846ZM11.1538 0.9H2.84615C1.77554 0.9 0.9 1.77554 0.9 2.84615V11.1538C0.9 12.2245 1.77554 13.1 2.84615 13.1H11.1538C12.2245 13.1 13.1 12.2245 13.1 11.1538V2.84615C13.1 1.77554 12.2245 0.9 11.1538 0.9ZM11.9769 11.1538C11.9769 11.6063 11.6063 11.9769 11.1538 11.9769H2.84615C2.39369 11.9769 2.02308 11.6063 2.02308 11.1538V2.84615C2.02308 2.39369 2.39369 2.02308 2.84615 2.02308H11.1538C11.6063 2.02308 11.9769 2.39369 11.9769 2.84615V11.1538ZM9.76923 3.66923H6.07692C5.76323 3.66923 5.51538 3.91708 5.51538 4.23077C5.51538 4.54446 5.76323 4.79231 6.07692 4.79231H9.76923C10.0829 4.79231 10.3308 4.54446 10.3308 4.23077C10.3308 3.91708 10.0829 3.66923 9.76923 3.66923ZM9.76923 6.43846H6.07692C5.76323 6.43846 5.51538 6.68631 5.51538 7C5.51538 7.31369 5.76323 7.56154 6.07692 7.56154H9.76923C10.0829 7.56154 10.3308 7.31369 10.3308 7C10.3308 6.68631 10.0829 6.43846 9.76923 6.43846ZM9.76923 9.20769H6.07692C5.76323 9.20769 5.51538 9.45554 5.51538 9.76923C5.51538 10.0829 5.76323 10.3308 6.07692 10.3308H9.76923C10.0829 10.3308 10.3308 10.0829 10.3308 9.76923C10.3308 9.45554 10.0829 9.20769 9.76923 9.20769Z" fill="white" stroke="white" stroke-width="0.2"/>
</svg>
